HIERARCHY
ROOT Hips
{
	OFFSET 0.00000 0.00000 0.00000
	CHANNELS 6 Xposition Yposition Zposition Zrotation Yrotation Xrotation 
	JOINT LHipJoint
	{
		OFFSET 0 0 0
		CHANNELS 3 Zrotation Yrotation Xrotation
		JOINT LeftUpLeg
		{
			OFFSET 1.54859 -1.61379 0.86856
			CHANNELS 3 Zrotation Yrotation Xrotation
			JOINT LeftLeg
			{
				OFFSET 2.25087 -6.18423 0.00000
				CHANNELS 3 Zrotation Yrotation Xrotation
				JOINT LeftFoot
				{
					OFFSET 2.40328 -6.60297 0.00000
					CHANNELS 3 Zrotation Yrotation Xrotation
					JOINT LeftToeBase
					{
						OFFSET 0.17435 -0.47901 2.02453
						CHANNELS 3 Zrotation Yrotation Xrotation
						End Site
						{
							OFFSET 0.00000 -0.00000 1.04844
						}
					}
				}
			}
		}
	}
	JOINT RHipJoint
	{
		OFFSET 0 0 0
		CHANNELS 3 Zrotation Yrotation Xrotation
		JOINT RightUpLeg
		{
			OFFSET -1.54669 -1.61379 0.86856
			CHANNELS 3 Zrotation Yrotation Xrotation
			JOINT RightLeg
			{
				OFFSET -2.28132 -6.26789 0.00000
				CHANNELS 3 Zrotation Yrotation Xrotation
				JOINT RightFoot
				{
					OFFSET -2.51636 -6.91365 0.00000
					CHANNELS 3 Zrotation Yrotation Xrotation
					JOINT RightToeBase
					{
						OFFSET -0.15124 -0.41552 2.21090
						CHANNELS 3 Zrotation Yrotation Xrotation
						End Site
						{
							OFFSET -0.00000 -0.00000 1.13399
						}
					}
				}
			}
		}
	}
	JOINT LowerBack
	{
		OFFSET 0 0 0
		CHANNELS 3 Zrotation Yrotation Xrotation
		JOINT Spine
		{
			OFFSET -0.04287 2.26161 -0.25690
			CHANNELS 3 Zrotation Yrotation Xrotation
			JOINT Spine1
			{
				OFFSET 0.02248 2.28395 -0.10140
				CHANNELS 3 Zrotation Yrotation Xrotation
				JOINT Neck
				{
					OFFSET 0 0 0
					CHANNELS 3 Zrotation Yrotation Xrotation
					JOINT Neck1
					{
						OFFSET -0.11644 1.38496 0.11345
						CHANNELS 3 Zrotation Yrotation Xrotation
						JOINT Head
						{
							OFFSET 0.29383 1.36600 0.06642
							CHANNELS 3 Zrotation Yrotation Xrotation
							End Site
							{
								OFFSET 0.11075 1.41395 -0.00294
							}
						}
					}
				}
				JOINT LeftShoulder
				{
					OFFSET 0 0 0
					CHANNELS 3 Zrotation Yrotation Xrotation
					JOINT LeftArm
					{
						OFFSET 3.51628 0.59542 -0.30346
						CHANNELS 3 Zrotation Yrotation Xrotation
						JOINT LeftForeArm
						{
							OFFSET 4.76405 -0.00000 0.00000
							CHANNELS 3 Zrotation Yrotation Xrotation
							JOINT LeftHand
							{
								OFFSET 3.13759 -0.00000 -0.00000
								CHANNELS 3 Zrotation Yrotation Xrotation
								JOINT LeftFingerBase
								{
									OFFSET 0 0 0
									CHANNELS 3 Zrotation Yrotation Xrotation
									JOINT LeftHandIndex1
									{
										OFFSET 0.73226 -0.00000 -0.00000
										CHANNELS 3 Zrotation Yrotation Xrotation
										End Site
										{
											OFFSET 0.59037 -0.00000 -0.00000
										}
									}
								}
								JOINT LThumb
								{
									OFFSET 0 0 0
									CHANNELS 3 Zrotation Yrotation Xrotation
									End Site
									{
										OFFSET 0.59938 -0.00000 0.59938
									}
								}
							}
						}
					}
				}
				JOINT RightShoulder
				{
					OFFSET 0 0 0
					CHANNELS 3 Zrotation Yrotation Xrotation
					JOINT RightArm
					{
						OFFSET -3.30990 0.84213 -0.36430
						CHANNELS 3 Zrotation Yrotation Xrotation
						JOINT RightForeArm
						{
							OFFSET -5.10161 -0.00000 -0.00000
							CHANNELS 3 Zrotation Yrotation Xrotation
							JOINT RightHand
							{
								OFFSET -3.23267 -0.00000 -0.00000
								CHANNELS 3 Zrotation Yrotation Xrotation
								JOINT RightFingerBase
								{
									OFFSET 0 0 0
									CHANNELS 3 Zrotation Yrotation Xrotation
									JOINT RightHandIndex1
									{
										OFFSET -0.70200 -0.00000 -0.00000
										CHANNELS 3 Zrotation Yrotation Xrotation
										End Site
										{
											OFFSET -0.56597 -0.00000 -0.00000
										}
									}
								}
								JOINT RThumb
								{
									OFFSET 0 0 0
									CHANNELS 3 Zrotation Yrotation Xrotation
									End Site
									{
										OFFSET -0.57461 -0.00000 0.57461
									}
								}
							}
						}
					}
				}
			}
		}
	}
}
MOTION
Frames: 5
Frame Time: .0083333
10.4494 14.9698 3.3592 -191.6670 70.0664 -185.5830 0.0000 0.0000 0.0000 -29.5022 10.4794 21.5349 8.3995 16.4053 53.9891 -0.3856 11.5733 -0.1827 0.7776 -5.6302 -15.7151 0.0000 0.0000 0.0000 1.7781 13.1257 -44.1530 -3.5051 -11.4710 33.8853 0.0082 7.3306 -4.9464 -5.9498 14.3795 -44.7798 -15.0534 -3.2239 8.1620 1.2758 -4.8684 6.1735 10.0269 -2.9549 3.5124 -13.8304 0.7155 -6.6239 12.2609 2.3986 -5.9955 6.0317 1.5169 -0.9662 -0.0000 0.0000 0.0000 -76.0766 7.2800 44.9202 46.3718 -51.4231 -23.3063 -0.0000 0.0000 -22.3520 26.3899 21.6011 10.3519 -7.1250 0.0000 -0.0000 -2.4929 53.8087 -0.5401 -0.0000 0.0000 0.0000 84.5111 8.8000 3.2432 -105.1753 59.1117 -73.1030 0.0000 -0.0000 -41.7727 -23.1261 27.3013 -11.0831 7.1250 -0.0000 -0.0000 4.1884 -0.7445 4.1448
11.0947 14.8863 3.1272 -189.8860 70.2654 -184.7570 0.0000 0.0000 0.0000 -27.9174 11.8100 20.3099 9.9935 17.4062 59.4666 -0.4685 12.1507 -2.6173 0.4907 -4.4914 -12.4634 0.0000 0.0000 0.0000 3.2238 12.2054 -43.1046 -3.8341 -11.9362 35.5068 -0.0133 8.1786 -5.9995 -6.9197 15.2639 -48.5701 -14.2641 -3.2129 8.5810 1.2752 -4.8601 6.2545 9.6087 -2.9034 3.2716 -13.4837 0.9810 -6.5575 11.8179 2.7364 -6.2673 5.8324 1.6822 -1.0950 0.0000 -0.0000 0.0000 -77.4095 10.3122 44.2162 43.9010 -50.2186 -21.3908 -0.0000 0.0000 -21.0936 27.2196 22.3471 11.0656 -7.1250 0.0000 -0.0000 -1.8211 54.7808 -0.4376 0.0000 -0.0000 0.0000 84.9006 8.1936 4.0417 -107.6669 58.7872 -75.2377 0.0000 -0.0000 -44.2122 -23.2697 26.4099 -10.8286 7.1250 -0.0000 -0.0000 3.9886 -1.6446 3.8820
11.7294 14.8241 2.8934 -187.3660 70.5085 -183.1020 0.0000 0.0000 0.0000 -25.8627 13.0772 18.1541 11.7581 18.2865 65.2198 -0.6013 13.6736 -3.3994 0.2896 -3.4607 -9.5640 0.0000 0.0000 0.0000 4.8505 11.2542 -42.6424 -4.4472 -12.7329 38.3766 0.3150 11.8255 -2.5877 -5.2987 13.7124 -42.0975 -13.3041 -3.1883 9.0787 1.3785 -4.8377 6.2615 9.2173 -2.8322 2.8951 -13.6624 1.2103 -5.9927 11.9106 3.0315 -6.7978 5.8846 1.8220 -1.3830 0.0000 -0.0000 0.0000 -78.9956 13.1565 43.2091 41.0854 -48.6999 -19.2507 -0.0000 0.0000 -19.5344 27.9536 23.3742 11.8892 -7.1250 0.0000 -0.0000 -1.3198 56.0470 -0.3577 0.0000 -0.0000 0.0000 85.0741 7.6892 4.9064 -110.3277 58.3796 -77.5085 0.0000 -0.0000 -46.7697 -23.6482 25.5810 -10.7068 7.1250 -0.0000 -0.0000 3.6571 -2.4374 3.5055
12.3624 14.9198 2.6194 -183.4820 70.7406 -179.9440 0.0000 0.0000 0.0000 -23.4953 14.1000 15.4885 13.5551 18.9735 70.8410 -0.6164 13.7510 -4.8959 0.2890 -3.4570 -9.5537 0.0000 0.0000 0.0000 7.3058 9.4343 -43.0668 -5.4131 -13.8344 42.5781 0.3985 12.1850 -0.8805 -2.7304 10.2453 -29.7748 -11.6462 -3.1121 9.6065 1.4669 -4.6669 6.4227 8.4045 -2.6685 2.5585 -13.0822 1.3041 -6.5011 11.3498 3.2445 -7.4907 5.6164 1.9536 -1.5171 -0.0000 0.0000 0.0000 -80.3766 15.3636 42.1835 38.1791 -46.9533 -17.0964 -0.0000 0.0000 -17.8075 28.6032 23.5887 12.3094 -7.1250 0.0000 -0.0000 -0.6688 56.4221 -0.1873 -0.0000 0.0000 0.0000 86.1568 7.3174 5.1869 -114.3877 57.6289 -80.9522 0.0000 -0.0000 -48.7295 -23.5618 25.0630 -10.4666 7.1250 -0.0000 -0.0000 3.6463 -2.9975 3.4577
12.9570 14.9100 2.3833 -179.0230 70.8182 -176.3790 0.0000 0.0000 0.0000 -20.8433 14.8728 12.8354 15.5168 19.5111 76.7887 -0.6245 13.8382 -5.3901 0.2416 -3.1629 -8.7326 0.0000 0.0000 0.0000 8.3404 10.2495 -42.3545 -6.4462 -14.8472 46.7473 0.3742 11.9968 -1.2466 -0.1366 -2.3823 6.5634 -9.9322 -3.0481 10.5196 1.6249 -4.5255 6.5381 7.6612 -2.5058 1.9832 -12.2774 1.5837 -6.4305 10.5296 3.6101 -8.3431 5.2203 2.1392 -1.8028 0.0000 0.0000 0.0000 -82.0379 17.5316 40.8347 35.0253 -44.8302 -14.8312 -0.0000 0.0000 -15.3987 29.0377 23.6000 12.5310 -7.1250 0.0000 -0.0000 -0.1922 56.5310 -0.0543 0.0000 0.0000 0.0000 86.4835 7.7521 5.6172 -116.6683 57.1343 -82.8732 0.0000 -0.0000 -50.8290 -23.8812 24.8822 -10.5525 7.1250 -0.0000 -0.0000 3.4299 -3.1260 3.2437
